
<svg xmlns="http://www.w3.org/2000/svg" style="display:none">
  <symbol id="icon-plus" viewBox="0 0 16 16" fill="none">
    <path d="M8 3v10M3 8h10" stroke="currentColor" stroke-width="1.5" stroke-linecap="round"></path>
  </symbol>
  <symbol id="icon-close" viewBox="0 0 16 16" fill="none">
    <path d="M4 4l8 8M12 4l-8 8" stroke="currentColor" stroke-width="1.5" stroke-linecap="round"></path>
  </symbol>
  <symbol id="icon-check" viewBox="0 0 16 16" fill="none">
    <path d="M13.25 4.75L6 12 2.75 8.75" stroke="currentColor" stroke-width="1.5" stroke-linecap="round" stroke-linejoin="round"></path>
  </symbol>
  <symbol id="icon-chevron-right" viewBox="0 0 16 16" fill="none">
    <path d="M6 3l5 5-5 5" stroke="currentColor" stroke-width="1.5" stroke-linecap="round" stroke-linejoin="round"></path>
  </symbol>
  <symbol id="icon-chevron-left" viewBox="0 0 16 16" fill="none">
    <path d="M10 3L5 8l5 5" stroke="currentColor" stroke-width="1.5" stroke-linecap="round" stroke-linejoin="round"></path>
  </symbol>
  <symbol id="icon-edit" viewBox="0 0 16 16" fill="none">
    <path d="M11.5 1.5l3 3-9 9H2.5v-3l9-9z" stroke="currentColor" stroke-width="1.5" stroke-linecap="round" stroke-linejoin="round"></path>
  </symbol>
  <symbol id="icon-trash" viewBox="0 0 16 16" fill="none">
    <path d="M2.5 4.5h11M5.5 4.5V3a1 1 0 0 1 1-1h3a1 1 0 0 1 1 1v1.5M6.5 7v4.5M9.5 7v4.5M3.5 4.5l.5 8.5a1 1 0 0 0 1 1h6a1 1 0 0 0 1-1l.5-8.5" stroke="currentColor" stroke-width="1.5" stroke-linecap="round" stroke-linejoin="round"></path>
  </symbol>
  <symbol id="icon-send" viewBox="0 0 16 16" fill="none">
    <path d="M14 2L2 8.5l4.5 1.5M14 2l-3.5 12L8.5 10M14 2L6.5 10" stroke="currentColor" stroke-width="1.5" stroke-linecap="round" stroke-linejoin="round"></path>
  </symbol>
  <symbol id="icon-chat" viewBox="0 0 24 24" fill="none">
    <path d="M21 15a2 2 0 0 1-2 2H7l-4 4V5a2 2 0 0 1 2-2h14a2 2 0 0 1 2 2z" stroke="currentColor" stroke-width="2" stroke-linecap="round" stroke-linejoin="round"></path>
  </symbol>
  <symbol id="icon-lock" viewBox="0 0 16 16" fill="currentColor">
    <path fill-rule="evenodd" d="M8 1a4 4 0 0 0-4 4v2H3a1 1 0 0 0-1 1v6a1 1 0 0 0 1 1h10a1 1 0 0 0 1-1V8a1 1 0 0 0-1-1h-1V5a4 4 0 0 0-4-4zm2.5 6V5a2.5 2.5 0 1 0-5 0v2h5z" clip-rule="evenodd"></path>
  </symbol>
  <symbol id="icon-star" viewBox="0 0 16 16" fill="currentColor">
    <path fill-rule="evenodd" d="M8 1.5a.75.75 0 0 1 .67.42l1.82 3.69 4.07.59a.75.75 0 0 1 .42 1.28l-2.95 2.87.7 4.06a.75.75 0 0 1-1.09.79L8 12.85l-3.64 1.91a.75.75 0 0 1-1.09-.79l.7-4.06-2.95-2.87a.75.75 0 0 1 .42-1.28l4.07-.59L7.33 1.92A.75.75 0 0 1 8 1.5z" clip-rule="evenodd"></path>
  </symbol>
  <symbol id="icon-warning" viewBox="0 0 24 24" fill="none">
    <path stroke="currentColor" stroke-width="2" stroke-linecap="round" stroke-linejoin="round" d="M12 9v3.75m-9.303 3.376c-.866 1.5.217 3.374 1.948 3.374h14.71c1.73 0 2.813-1.874 1.948-3.374L13.949 3.378c-.866-1.5-3.032-1.5-3.898 0L2.697 16.126zM12 15.75h.007v.008H12v-.008z"></path>
  </symbol>
</svg>